<?xml version="1.0" encoding="UTF-8"?>
<svg xmlns="http://www.w3.org/2000/svg" xmlns:xlink="http://www.w3.org/1999/xlink" width="64px" height="64px" viewBox="0 0 64 64" version="1.1">
<g id="surface1">
<path style=" stroke:none;fill-rule:nonzero;fill:rgb(20%,20%,20%);fill-opacity:1;" d="M 21.265625 31.414062 C 21.730469 31.121094 21.871094 30.503906 21.578125 30.039062 C 21.285156 29.570312 20.667969 29.433594 20.203125 29.726562 C 12.882812 34.332031 15.40625 38.222656 17.820312 41.949219 C 19 43.761719 20.144531 45.527344 19.539062 47.085938 C 19.339844 47.597656 19.59375 48.175781 20.109375 48.375 C 20.621094 48.574219 21.199219 48.316406 21.398438 47.804688 C 22.375 45.300781 20.953125 43.109375 19.496094 40.859375 C 17.617188 37.964844 15.65625 34.945312 21.265625 31.414062 Z M 21.265625 31.414062 "/>
<path style=" stroke:none;fill-rule:nonzero;fill:rgb(20%,20%,20%);fill-opacity:1;" d="M 13.070312 52.117188 C 12.515625 52.117188 12.070312 52.566406 12.070312 53.117188 C 12.070312 53.671875 12.515625 54.117188 13.070312 54.117188 L 20.753906 54.117188 C 21.304688 54.117188 21.753906 53.671875 21.753906 53.117188 L 21.753906 50.242188 C 21.753906 48.910156 21.210938 47.699219 20.332031 46.824219 C 19.457031 45.949219 18.25 45.40625 16.917969 45.40625 L 10.203125 45.40625 C 9.652344 45.40625 9.203125 45.851562 9.203125 46.40625 L 9.203125 51.457031 C 9.203125 52.011719 9.652344 52.460938 10.203125 52.460938 C 10.757812 52.460938 11.207031 52.011719 11.207031 51.457031 L 11.207031 47.40625 L 16.917969 47.40625 C 17.695312 47.40625 18.40625 47.726562 18.917969 48.238281 C 19.433594 48.753906 19.753906 49.460938 19.753906 50.242188 L 19.753906 52.117188 Z M 13.070312 52.117188 "/>
<path style=" stroke:none;fill-rule:nonzero;fill:rgb(20%,20%,20%);fill-opacity:1;" d="M 11.164062 50.199219 C 11.96875 50.199219 12.699219 50.527344 13.226562 51.054688 C 13.753906 51.582031 14.082031 52.3125 14.082031 53.117188 C 14.082031 53.921875 13.753906 54.652344 13.226562 55.179688 C 12.699219 55.710938 11.96875 56.035156 11.164062 56.035156 C 10.359375 56.035156 9.628906 55.710938 9.101562 55.179688 C 8.570312 54.652344 8.246094 53.921875 8.246094 53.117188 C 8.246094 52.3125 8.570312 51.582031 9.101562 51.054688 C 9.628906 50.527344 10.359375 50.199219 11.164062 50.199219 Z M 11.8125 52.46875 C 11.644531 52.304688 11.417969 52.199219 11.164062 52.199219 C 10.910156 52.199219 10.679688 52.304688 10.515625 52.46875 C 10.347656 52.636719 10.246094 52.863281 10.246094 53.117188 C 10.246094 53.371094 10.347656 53.601562 10.515625 53.765625 C 10.679688 53.933594 10.910156 54.035156 11.164062 54.035156 C 11.417969 54.035156 11.644531 53.933594 11.8125 53.765625 C 11.976562 53.601562 12.082031 53.371094 12.082031 53.117188 C 12.082031 52.863281 11.976562 52.636719 11.8125 52.46875 Z M 11.8125 52.46875 "/>
<path style=" stroke:none;fill-rule:nonzero;fill:rgb(20%,20%,20%);fill-opacity:1;" d="M 41.484375 8.003906 C 43.015625 8.003906 44.402344 8.625 45.40625 9.628906 C 46.410156 10.632812 47.03125 12.019531 47.03125 13.550781 C 47.03125 15.082031 46.410156 16.46875 45.40625 17.472656 C 44.402344 18.476562 43.015625 19.097656 41.484375 19.097656 C 39.953125 19.097656 38.566406 18.476562 37.5625 17.472656 C 36.558594 16.46875 35.941406 15.082031 35.941406 13.550781 C 35.941406 12.019531 36.558594 10.632812 37.5625 9.628906 C 38.566406 8.625 39.953125 8.003906 41.484375 8.003906 Z M 43.992188 11.042969 C 43.351562 10.402344 42.464844 10.007812 41.484375 10.007812 C 40.507812 10.007812 39.621094 10.402344 38.980469 11.042969 C 38.335938 11.6875 37.941406 12.570312 37.941406 13.550781 C 37.941406 14.53125 38.335938 15.414062 38.980469 16.058594 C 39.621094 16.699219 40.507812 17.09375 41.484375 17.09375 C 42.464844 17.09375 43.351562 16.699219 43.992188 16.058594 C 44.632812 15.414062 45.027344 14.53125 45.027344 13.550781 C 45.027344 12.570312 44.632812 11.6875 43.992188 11.042969 Z M 43.992188 11.042969 "/>
<path style=" stroke:none;fill-rule:nonzero;fill:rgb(20%,20%,20%);fill-opacity:1;" d="M 25.425781 31.511719 C 24.945312 31.246094 24.339844 31.425781 24.074219 31.910156 C 23.8125 32.394531 23.988281 33 24.472656 33.261719 L 40.667969 42.113281 C 41.152344 42.375 41.757812 42.199219 42.019531 41.714844 C 42.28125 41.230469 42.105469 40.625 41.621094 40.363281 Z M 45.621094 42.605469 C 45.140625 42.34375 44.535156 42.519531 44.269531 43.003906 C 44.007812 43.488281 44.1875 44.09375 44.667969 44.355469 L 50.542969 47.554688 C 51.027344 47.816406 51.632812 47.640625 51.894531 47.15625 C 52.160156 46.671875 51.980469 46.066406 51.496094 45.804688 Z M 45.621094 42.605469 "/>
<path style=" stroke:none;fill-rule:nonzero;fill:rgb(20%,20%,20%);fill-opacity:1;" d="M 54.796875 50.648438 L 46.789062 50.648438 C 46.238281 50.648438 45.789062 50.199219 45.789062 49.648438 C 45.789062 48.386719 46.390625 47.488281 47.304688 46.878906 C 48.265625 46.238281 49.585938 45.96875 50.84375 45.949219 C 51.054688 45.945312 50.867188 45.941406 50.984375 45.941406 C 52.128906 45.941406 53.253906 46.164062 54.125 46.683594 C 55.117188 47.277344 55.769531 48.210938 55.792969 49.582031 L 55.796875 49.582031 C 55.796875 49.605469 55.796875 49.625 55.796875 49.648438 C 55.796875 49.625 55.796875 49.570312 55.796875 49.648438 C 55.796875 50.199219 55.347656 50.648438 54.796875 50.648438 Z M 48.265625 48.648438 L 53.421875 48.648438 C 53.328125 48.550781 53.222656 48.46875 53.101562 48.398438 C 52.570312 48.078125 51.804688 47.945312 50.984375 47.945312 C 50.777344 47.945312 50.992188 47.941406 50.867188 47.941406 C 49.953125 47.957031 49.027344 48.132812 48.40625 48.542969 C 48.359375 48.574219 48.3125 48.609375 48.265625 48.648438 Z M 55.796875 49.648438 L 55.792969 49.65625 C 55.796875 49.65625 55.796875 49.652344 55.796875 49.648438 Z M 55.796875 49.648438 "/>
<path style=" stroke:none;fill-rule:nonzero;fill:rgb(20%,20%,20%);fill-opacity:1;" d="M 21.820312 30.863281 C 21.660156 31.375 21.828125 31.777344 22.125 32.019531 C 22.257812 32.125 22.414062 32.207031 22.582031 32.257812 C 22.742188 32.308594 22.917969 32.328125 23.09375 32.3125 C 23.472656 32.28125 23.835938 32.042969 23.992188 31.53125 C 24 31.515625 25.464844 27.980469 27.839844 25.609375 C 29.117188 24.335938 30.675781 23.359375 32.46875 23.292969 L 32.46875 23.289062 C 33.019531 23.269531 33.484375 23.703125 33.503906 24.253906 C 33.511719 24.457031 33.457031 24.648438 33.359375 24.808594 L 28.027344 35.171875 C 27.421875 37.425781 27.191406 43.34375 27.011719 47.882812 C 26.945312 49.652344 26.882812 51.222656 26.8125 52.246094 L 26.816406 52.25 C 26.816406 52.265625 26.8125 52.28125 26.8125 52.296875 C 26.789062 52.808594 27.039062 53.152344 27.375 53.3125 C 27.527344 53.386719 27.695312 53.429688 27.871094 53.441406 C 28.050781 53.453125 28.222656 53.4375 28.378906 53.386719 C 28.746094 53.269531 29.046875 52.953125 29.085938 52.414062 C 29.085938 52.394531 29.089844 52.378906 29.089844 52.359375 C 29.226562 50.441406 29.6875 47.742188 30.226562 45.304688 C 30.808594 42.644531 31.503906 40.238281 31.988281 39.398438 L 31.988281 39.394531 C 32.261719 38.914062 32.875 38.75 33.351562 39.027344 C 33.578125 39.15625 33.734375 39.359375 33.804688 39.589844 L 38.671875 51.6875 C 38.871094 52.1875 39.253906 52.394531 39.636719 52.394531 C 39.804688 52.394531 39.976562 52.359375 40.140625 52.292969 C 40.300781 52.230469 40.449219 52.136719 40.570312 52.019531 C 40.847656 51.753906 40.980469 51.339844 40.78125 50.839844 L 36.09375 39.117188 L 36.089844 39.117188 C 35.988281 38.867188 35.996094 38.601562 36.089844 38.371094 C 36.472656 37.117188 37.019531 35.296875 37.582031 33.402344 C 38.355469 30.792969 39.070312 28.367188 39.445312 27.085938 L 39.441406 27.082031 C 39.597656 26.550781 40.152344 26.246094 40.683594 26.402344 C 40.8125 26.441406 40.925781 26.5 41.027344 26.578125 C 42.769531 27.851562 43.75 30.179688 44 32.800781 C 44.25 35.449219 43.75 38.441406 42.535156 40.914062 L 42.539062 40.914062 C 42.496094 40.996094 42.449219 41.066406 42.390625 41.132812 C 42.105469 41.539062 42.125 41.953125 42.3125 42.269531 C 42.398438 42.417969 42.515625 42.546875 42.652344 42.652344 C 42.789062 42.757812 42.945312 42.835938 43.109375 42.882812 C 43.460938 42.984375 43.867188 42.902344 44.183594 42.527344 C 45.617188 39.824219 46.417969 36.996094 46.496094 34.285156 C 46.570312 31.6875 45.976562 29.191406 44.636719 27.007812 C 42.652344 23.765625 39.574219 21.246094 36.253906 20.226562 C 34.921875 19.816406 33.550781 19.652344 32.203125 19.785156 C 30.871094 19.914062 29.550781 20.335938 28.300781 21.105469 C 25.691406 22.703125 23.375 25.800781 21.820312 30.863281 Z M 20.875 33.574219 C 19.984375 32.855469 19.476562 31.699219 19.910156 30.277344 C 21.625 24.703125 24.257812 21.238281 27.261719 19.398438 C 28.777344 18.46875 30.386719 17.957031 32.015625 17.796875 C 33.632812 17.640625 35.261719 17.835938 36.839844 18.320312 C 40.617188 19.480469 44.109375 22.320312 46.34375 25.964844 C 47.890625 28.488281 48.574219 31.363281 48.488281 34.339844 C 48.402344 37.363281 47.519531 40.496094 45.941406 43.46875 C 45.90625 43.546875 45.863281 43.621094 45.808594 43.691406 C 44.898438 44.867188 43.660156 45.121094 42.5625 44.804688 C 42.15625 44.691406 41.773438 44.492188 41.433594 44.230469 C 41.097656 43.972656 40.808594 43.648438 40.59375 43.285156 C 40.027344 42.328125 39.945312 41.105469 40.78125 39.953125 C 41.808594 37.824219 42.226562 35.265625 42.011719 32.988281 C 41.878906 31.566406 41.5 30.273438 40.875 29.304688 C 40.46875 30.6875 39.972656 32.367188 39.496094 33.964844 C 39.023438 35.558594 38.523438 37.230469 38.074219 38.699219 L 42.632812 50.097656 C 43.1875 51.480469 42.773438 52.675781 41.945312 53.464844 C 41.640625 53.757812 41.273438 53.988281 40.882812 54.148438 C 40.488281 54.304688 40.066406 54.386719 39.636719 54.390625 C 38.496094 54.390625 37.371094 53.808594 36.816406 52.429688 L 32.914062 42.722656 C 32.675781 43.597656 32.421875 44.636719 32.179688 45.734375 C 31.660156 48.105469 31.210938 50.699219 31.082031 52.5 C 31.082031 52.519531 31.082031 52.539062 31.082031 52.554688 L 31.078125 52.554688 C 30.976562 54.039062 30.078125 54.9375 28.992188 55.285156 C 28.582031 55.417969 28.152344 55.464844 27.730469 55.4375 C 27.308594 55.40625 26.890625 55.296875 26.507812 55.113281 C 25.492188 54.621094 24.738281 53.625 24.816406 52.175781 C 24.816406 52.15625 24.816406 52.136719 24.820312 52.117188 L 24.820312 52.113281 C 24.894531 51.011719 24.953125 49.507812 25.019531 47.8125 C 25.203125 43.136719 25.441406 37.03125 26.113281 34.59375 C 26.128906 34.515625 26.160156 34.433594 26.199219 34.355469 L 27.089844 34.8125 L 26.203125 34.355469 L 30.503906 25.992188 C 30.0625 26.277344 29.644531 26.632812 29.25 27.023438 C 27.160156 29.109375 25.90625 32.105469 25.902344 32.117188 C 25.464844 33.539062 24.390625 34.210938 23.25 34.304688 C 22.832031 34.339844 22.402344 34.289062 21.996094 34.164062 C 21.589844 34.039062 21.207031 33.839844 20.875 33.574219 Z M 20.875 33.574219 "/>
<path style=" stroke:none;fill-rule:evenodd;fill:rgb(58.039216%,58.039216%,58.039216%);fill-opacity:1;" d="M 10.515625 52.46875 C 10.347656 52.636719 10.246094 52.863281 10.246094 53.117188 C 10.246094 53.371094 10.347656 53.601562 10.515625 53.765625 C 10.679688 53.933594 10.910156 54.035156 11.164062 54.035156 C 11.417969 54.035156 11.644531 53.933594 11.8125 53.765625 C 11.953125 53.625 12.050781 53.433594 12.074219 53.222656 C 12.070312 53.1875 12.070312 53.152344 12.070312 53.117188 C 12.070312 53.082031 12.070312 53.046875 12.074219 53.011719 C 12.050781 52.800781 11.953125 52.613281 11.8125 52.46875 C 11.644531 52.304688 11.417969 52.199219 11.164062 52.199219 C 11.011719 52.199219 10.867188 52.238281 10.738281 52.304688 C 10.71875 52.320312 10.695312 52.332031 10.667969 52.34375 C 10.613281 52.378906 10.5625 52.421875 10.515625 52.46875 Z M 10.515625 52.46875 "/>
<path style=" stroke:none;fill-rule:evenodd;fill:rgb(38.823529%,79.607843%,89.803922%);fill-opacity:1;" d="M 16.917969 47.40625 L 11.207031 47.40625 L 11.207031 50.199219 C 11.996094 50.210938 12.707031 50.535156 13.226562 51.054688 C 13.523438 51.351562 13.757812 51.714844 13.90625 52.117188 L 19.753906 52.117188 L 19.753906 50.242188 C 19.753906 49.460938 19.433594 48.753906 18.917969 48.238281 C 18.40625 47.726562 17.695312 47.40625 16.917969 47.40625 Z M 16.917969 47.40625 "/>
<path style=" stroke:none;fill-rule:evenodd;fill:rgb(68.235294%,83.529412%,50.588235%);fill-opacity:1;" d="M 29.085938 52.414062 Z M 28.019531 35.199219 C 27.421875 37.476562 27.191406 43.363281 27.011719 47.882812 C 26.945312 49.652344 26.882812 51.222656 26.8125 52.246094 L 26.8125 52.296875 C 26.789062 52.808594 27.039062 53.152344 27.375 53.3125 C 28.027344 53.628906 29.015625 53.421875 29.085938 52.414062 C 29.222656 50.46875 29.683594 47.769531 30.226562 45.304688 C 30.808594 42.644531 31.503906 40.238281 31.988281 39.398438 L 31.988281 39.394531 C 32.390625 38.691406 33.484375 38.703125 33.804688 39.589844 L 38.671875 51.6875 C 39.042969 52.617188 40.042969 52.519531 40.570312 52.019531 C 40.847656 51.753906 40.980469 51.339844 40.78125 50.839844 L 36.347656 39.75 Z M 28.019531 35.199219 "/>
<path style=" stroke:none;fill-rule:evenodd;fill:rgb(68.235294%,83.529412%,50.588235%);fill-opacity:1;" d="M 33.359375 24.808594 L 28.925781 33.425781 L 36.359375 37.488281 C 36.707031 36.332031 37.140625 34.890625 37.582031 33.402344 C 38.355469 30.792969 39.070312 28.367188 39.445312 27.085938 L 39.441406 27.082031 C 39.636719 26.425781 40.433594 26.125 41.027344 26.578125 C 42.769531 27.851562 43.75 30.179688 44 32.800781 C 44.25 35.453125 43.75 38.441406 42.535156 40.914062 L 42.539062 40.914062 C 42.496094 40.996094 42.449219 41.066406 42.390625 41.132812 C 42.105469 41.539062 42.125 41.953125 42.3125 42.269531 C 42.488281 42.5625 42.777344 42.789062 43.109375 42.882812 C 43.460938 42.984375 43.867188 42.902344 44.183594 42.527344 C 45.617188 39.824219 46.417969 36.996094 46.496094 34.285156 C 46.570312 31.6875 45.976562 29.191406 44.636719 27.007812 C 42.652344 23.765625 39.574219 21.246094 36.253906 20.226562 C 33.542969 19.394531 30.769531 19.589844 28.300781 21.105469 C 25.691406 22.703125 23.375 25.800781 21.820312 30.863281 C 21.660156 31.375 21.828125 31.777344 22.125 32.019531 C 22.691406 32.472656 23.699219 32.484375 23.992188 31.53125 C 24 31.515625 25.464844 27.980469 27.839844 25.609375 C 29.117188 24.335938 30.675781 23.359375 32.46875 23.292969 L 32.46875 23.289062 C 33.203125 23.265625 33.785156 24.046875 33.359375 24.808594 Z M 33.359375 24.808594 "/>
<path style=" stroke:none;fill-rule:evenodd;fill:rgb(70.196078%,55.686275%,52.156863%);fill-opacity:1;" d="M 50.867188 47.941406 C 49.933594 47.957031 48.867188 48.152344 48.265625 48.648438 L 53.421875 48.648438 C 52.851562 48.054688 51.660156 47.929688 50.867188 47.941406 Z M 50.867188 47.941406 "/>
<path style=" stroke:none;fill-rule:evenodd;fill:rgb(100%,82.745098%,70.196078%);fill-opacity:1;" d="M 38.980469 11.042969 C 38.335938 11.6875 37.941406 12.570312 37.941406 13.550781 C 37.941406 14.53125 38.335938 15.414062 38.980469 16.058594 C 39.621094 16.699219 40.507812 17.09375 41.484375 17.09375 C 42.464844 17.09375 43.351562 16.699219 43.992188 16.058594 C 44.632812 15.414062 45.03125 14.53125 45.03125 13.550781 C 45.03125 12.570312 44.632812 11.6875 43.992188 11.042969 C 43.351562 10.402344 42.464844 10.007812 41.484375 10.007812 C 40.507812 10.007812 39.621094 10.402344 38.980469 11.042969 Z M 38.980469 11.042969 "/>
</g>
</svg>
